<svg width="66" height="66" viewBox="0 0 66 66" fill="none" xmlns="http://www.w3.org/2000/svg">
<g filter="url(#filter0_d_602_36)">
<circle cx="33" cy="29" r="29" fill="url(#paint0_linear_602_36)"/>
<circle cx="33" cy="29" r="28.5" stroke="#C9282A"/>
</g>
<path d="M52.6452 37.9755V40.305H13.043V36.8107C15.3726 30.521 20.218 17.5688 20.9634 16.0779C21.7089 14.587 25.7778 14.3695 27.7191 14.4471C30.2816 14.3695 36.3384 14.2608 40.0657 14.4471C43.7929 14.6335 44.88 16.2331 44.9577 17.0096L52.6452 37.9755Z" fill="url(#paint1_linear_602_36)"/>
<path d="M33.2128 21.5657C27.2492 21.5657 24.6712 20.7891 24.1276 20.4009C23.5259 22.0316 23.5259 24.3611 24.9236 25.06C29.4274 25.1376 39.9126 25.06 41.2304 25.06C43.56 25.06 42.4338 20.1679 41.8321 20.4009C41.2304 20.6338 40.6673 21.5657 33.2128 21.5657Z" fill="url(#paint2_linear_602_36)" stroke="#470D0D"/>
<path d="M8.98926 42.8764L13.3548 38.9785H52.4893L57.7903 41.785C52.0215 54.1022 38.457 57.4283 33.7796 56.9086C18.9366 57.2828 11.0681 47.7097 8.98926 42.8764Z" fill="url(#paint3_linear_602_36)"/>
<defs>
<filter id="filter0_d_602_36" x="0" y="0" width="66" height="66" filterUnits="userSpaceOnUse" color-interpolation-filters="sRGB">
<feFlood flood-opacity="0" result="BackgroundImageFix"/>
<feColorMatrix in="SourceAlpha" type="matrix" values="0 0 0 0 0 0 0 0 0 0 0 0 0 0 0 0 0 0 127 0" result="hardAlpha"/>
<feOffset dy="4"/>
<feGaussianBlur stdDeviation="2"/>
<feComposite in2="hardAlpha" operator="out"/>
<feColorMatrix type="matrix" values="0 0 0 0 0 0 0 0 0 0 0 0 0 0 0 0 0 0 0.25 0"/>
<feBlend mode="normal" in2="BackgroundImageFix" result="effect1_dropShadow_602_36"/>
<feBlend mode="normal" in="SourceGraphic" in2="effect1_dropShadow_602_36" result="shape"/>
</filter>
<linearGradient id="paint0_linear_602_36" x1="33" y1="0" x2="33" y2="58" gradientUnits="userSpaceOnUse">
<stop stop-color="#3C6698"/>
<stop offset="1"/>
</linearGradient>
<linearGradient id="paint1_linear_602_36" x1="32.8441" y1="14.3442" x2="32.8441" y2="40.305" gradientUnits="userSpaceOnUse">
<stop stop-color="#181719"/>
<stop offset="1"/>
</linearGradient>
<linearGradient id="paint2_linear_602_36" x1="32.6111" y1="21.7986" x2="32.6111" y2="25.06" gradientUnits="userSpaceOnUse">
<stop stop-color="#C9282A"/>
<stop offset="1" stop-color="#631415"/>
</linearGradient>
<linearGradient id="paint3_linear_602_36" x1="33.3898" y1="38.9785" x2="33.3898" y2="56.9598" gradientUnits="userSpaceOnUse">
<stop/>
<stop offset="1" stop-color="#181719"/>
</linearGradient>
</defs>
</svg>
