<?xml version="1.0" encoding="utf-8"?>
<!-- Generator: Adobe Illustrator 16.0.0, SVG Export Plug-In . SVG Version: 6.00 Build 0)  -->
<!DOCTYPE svg PUBLIC "-//W3C//DTD SVG 1.1//EN" "http://www.w3.org/Graphics/SVG/1.1/DTD/svg11.dtd">
<svg version="1.1" id="M" xmlns="http://www.w3.org/2000/svg" xmlns:xlink="http://www.w3.org/1999/xlink" x="0px" y="0px"
	 width="259.476px" height="263.226px" viewBox="0 0 259.476 263.226" enable-background="new 0 0 259.476 263.226"
	 xml:space="preserve">
<g>
	<circle opacity="0.7" cx="129.738" cy="133.488" r="129.738"/>
	<g>
		<linearGradient id="SVGID_1_" gradientUnits="userSpaceOnUse" x1="66.1875" y1="8.8506" x2="66.1875" y2="238.2319">
			<stop  offset="0" style="stop-color:#555351"/>
			<stop  offset="1" style="stop-color:#1D1C23"/>
		</linearGradient>
		<path fill="url(#SVGID_1_)" d="M3.012,126.352c0,69.781,56.567,126.35,126.351,126.35V0C59.58,0,3.012,56.569,3.012,126.352z"/>
		<linearGradient id="SVGID_2_" gradientUnits="userSpaceOnUse" x1="192.5386" y1="9.3506" x2="192.5386" y2="235.6982">
			<stop  offset="0" style="stop-color:#D84236"/>
			<stop  offset="1" style="stop-color:#C9292A"/>
		</linearGradient>
		<path fill="url(#SVGID_2_)" d="M129.363,0v252.701c69.783,0,126.351-56.568,126.351-126.35C255.713,56.569,199.146,0,129.363,0z"
			/>
	</g>
	<polygon opacity="0.7" points="66.863,206.951 88.029,206.951 88.029,129.451 131.529,208.689 172.863,129.451 172.863,206.951 
		193.863,206.951 193.863,81.284 175.696,81.284 131.279,165.908 85.696,81.284 66.988,81.284 	"/>
	<polygon fill="#FFFFFF" points="66.276,190.951 87.442,190.951 87.442,113.451 130.942,192.689 172.276,113.451 172.276,190.951 
		193.276,190.951 193.276,65.284 175.109,65.284 130.692,149.908 85.109,65.284 66.401,65.284 	"/>
</g>
</svg>
